# xmcd CD database file
#
# Track frame offsets:
#	150
#	16905
#	32905
#	48800
#	72967
#	91637
#	119416
#	135108
#	157454
#	181428
#	197793
#	217424
#
# Disc length: 3184 seconds
#
# Revision: 0
# Processed by: cddbd v1.5.2PL0 Copyright (c) Steve Scherf et al.
# Submitted via: CDex 1.51
#
DISCID=a90c6e0c
DTITLE=Various Artist - Easy Jazz [CD3)
DYEAR=2005
DGENRE=Jazz
TTITLE0=Claire Teal - our love is here to stay
TTITLE1=Chris Ingham - fly me to the moon
TTITLE2=Charlie Parker Sextet - how deep is the ocean
TTITLE3=Jane Monheit - save your love for me
TTITLE4=John Barry and Chris Botti - remembering Chet
TTITLE5=Zoot Sims - restless
TTITLE6=ELQ - stride out
TTITLE7=Joanna Eden - the nearness of you
TTITLE8=Alec Dankworth - the duke
TTITLE9=Irene Kral - when I look in your eyes
TTITLE10=Kymaera - breezin'
TTITLE11=ELQ - what a wonderful world
EXTD=YEAR: 2005
EXTT0=
EXTT1=
EXTT2=
EXTT3=
EXTT4=
EXTT5=
EXTT6=
EXTT7=
EXTT8=
EXTT9=
EXTT10=
EXTT11=
PLAYORDER=
